<svg version="1" xmlns="http://www.w3.org/2000/svg" width="933.333" height="933.333" viewBox="0 0 700.000000 700.000000"><path d="M331.7 8.6c-.1.1-4.2.4-9.2.8-4.9.4-10.1.8-11.5 1-1.4.2-5.2.7-8.5 1-3.3.4-6.7.9-7.6 1.2-.9.3-3.4.7-5.4.9-5.2.7-30.9 6.9-39.8 9.7-3.9 1.2-7.4 2.3-7.7 2.3-.8.2-3.6 1.3-17.5 6.7-12.1 4.7-35.5 15.7-43.5 20.6-1.9 1.2-5.1 3-7 4.1-4.1 2.3-25.7 16.7-27.5 18.4-.7.7-2.6 2.1-4.1 3.2-7.9 5.6-23.3 19.2-35.1 31.1-39.3 39.7-68.1 87.8-84.2 140.6-4.2 13.9-9.4 36.2-10.6 45.3-.3 2.7-1 7.7-1.5 11-3.5 22.4-3.2 67.6.5 91 .2 1.6.7 4.8 1 7 .3 2.2 1 6 1.5 8.5s1.2 5.6 1.4 7c.2 1.4.9 4.5 1.5 7 .7 2.5 1.4 5.6 1.7 7 3.2 15.6 14.9 47 25.1 67.5 40.6 81.4 110.9 142.9 196.8 172.2 18.2 6.2 41.8 11.8 62.5 14.8 16.7 2.4 22.1 2.8 43.5 3 32.7.3 57-2.6 88.2-10.6 14.5-3.7 19-5 32.8-9.9 31.4-11.2 70.3-33.1 96-54.1C589 596 611 572.6 629.2 547c16.7-23.5 31.2-51 40.8-77.1 2.8-7.4 4.3-12 7.9-23.4 1.2-3.8 5.1-19.2 5.8-22.5.2-1.4.8-4.3 1.3-6.5 1.7-7.6 4.4-25.9 5.6-37.5 1-9.6 1.2-43.4.3-52-1.6-16.6-2.2-21.4-3.3-27.8-.3-1.7-.8-4.7-1.2-6.5-2.7-16.2-13.4-53.8-17.6-62-.5-1-1.1-2.6-1.3-3.5-.2-.9-1.3-4-2.6-6.7-1.2-2.8-2.3-5.2-2.4-5.5-.5-1.9-5.8-13.3-10.7-22.8-11.1-22.1-27.1-46.9-40.1-62.7-8.1-9.8-18.9-21.5-19.8-21.5-.5 0-54.9 54-121 120.1-66 66-120.3 119.9-120.5 119.6-.3-.2-.5-77-.4-170.5V8.2l-9.1.2c-5 0-9.1.2-9.2.2z"/><path d="M380.2 9.4c-.8 1.3-1 270.6-.2 270.6.3 0 43.7-43 96.3-95.5L572.1 89l-5.3-5.1c-10.5-10.1-32.5-27.3-42.6-33.3-3-1.7-6.6-3.9-8-4.8-1.5-1-8.1-4.5-14.6-7.9-22.9-11.7-48.8-20.4-75.1-25.3-1.1-.2-4.5-.7-7.5-1.1-3-.4-6.4-.9-7.5-1.1-1.1-.2-5.4-.6-9.5-.9-16-1.2-21.1-1.2-21.8-.1z"/></svg>